<mxfile host="app.diagrams.net" modified="2022-11-11T08:56:03.803Z" agent="5.0 (Windows NT 10.0; Win64; x64) AppleWebKit/537.36 (KHTML, like Gecko) Chrome/107.0.0.0 Safari/537.36" etag="120bF6i0GnChoeofpQdl" version="20.5.3" type="github">
  <diagram id="UEa8OJTLaCwkjGWprIvI" name="第 1 页">
    <mxGraphModel dx="934" dy="473" grid="1" gridSize="10" guides="1" tooltips="1" connect="1" arrows="1" fold="1" page="1" pageScale="1" pageWidth="827" pageHeight="1169" math="0" shadow="0">
      <root>
        <mxCell id="0" />
        <mxCell id="1" parent="0" />
        <mxCell id="4kgw8Mr689Tr1ErhNRFe-2" value="" style="rounded=0;whiteSpace=wrap;html=1;" vertex="1" parent="1">
          <mxGeometry x="50" y="20" width="700" height="440" as="geometry" />
        </mxCell>
        <mxCell id="4kgw8Mr689Tr1ErhNRFe-52" value="" style="rounded=0;whiteSpace=wrap;html=1;dashed=1;fillColor=#f5f5f5;fontColor=#333333;strokeColor=#666666;" vertex="1" parent="1">
          <mxGeometry x="100" y="50" width="640" height="160" as="geometry" />
        </mxCell>
        <mxCell id="4kgw8Mr689Tr1ErhNRFe-65" value="" style="rounded=0;whiteSpace=wrap;html=1;fillColor=#f8cecc;strokeColor=#b85450;dashed=1;" vertex="1" parent="1">
          <mxGeometry x="150" y="110" width="150" height="89" as="geometry" />
        </mxCell>
        <mxCell id="4kgw8Mr689Tr1ErhNRFe-3" value="" style="rounded=0;whiteSpace=wrap;html=1;fillColor=#e1d5e7;strokeColor=#9673a6;" vertex="1" parent="1">
          <mxGeometry x="100" y="237" width="470" height="210" as="geometry" />
        </mxCell>
        <mxCell id="4kgw8Mr689Tr1ErhNRFe-4" value="JAVAEE" style="text;html=1;strokeColor=none;fillColor=none;align=center;verticalAlign=middle;whiteSpace=wrap;rounded=0;" vertex="1" parent="1">
          <mxGeometry x="100" y="237" width="60" height="30" as="geometry" />
        </mxCell>
        <mxCell id="4kgw8Mr689Tr1ErhNRFe-5" value="略" style="rounded=0;whiteSpace=wrap;html=1;" vertex="1" parent="1">
          <mxGeometry x="660" y="237" width="80" height="210" as="geometry" />
        </mxCell>
        <mxCell id="4kgw8Mr689Tr1ErhNRFe-6" value="JAVASE" style="text;html=1;strokeColor=none;fillColor=none;align=center;verticalAlign=middle;whiteSpace=wrap;rounded=0;" vertex="1" parent="1">
          <mxGeometry x="670" y="250" width="60" height="30" as="geometry" />
        </mxCell>
        <mxCell id="4kgw8Mr689Tr1ErhNRFe-9" value="hibernate、mybatis、jpa" style="rounded=0;whiteSpace=wrap;html=1;" vertex="1" parent="1">
          <mxGeometry x="220" y="330" width="110" height="40" as="geometry" />
        </mxCell>
        <mxCell id="4kgw8Mr689Tr1ErhNRFe-11" value="spring" style="rounded=0;whiteSpace=wrap;html=1;" vertex="1" parent="1">
          <mxGeometry x="220" y="280" width="110" height="40" as="geometry" />
        </mxCell>
        <mxCell id="4kgw8Mr689Tr1ErhNRFe-13" value="controller" style="text;html=1;strokeColor=none;fillColor=none;align=center;verticalAlign=middle;whiteSpace=wrap;rounded=0;" vertex="1" parent="1">
          <mxGeometry x="160" y="285" width="60" height="30" as="geometry" />
        </mxCell>
        <mxCell id="4kgw8Mr689Tr1ErhNRFe-14" value="model" style="text;html=1;strokeColor=none;fillColor=none;align=center;verticalAlign=middle;whiteSpace=wrap;rounded=0;" vertex="1" parent="1">
          <mxGeometry x="160" y="335" width="60" height="30" as="geometry" />
        </mxCell>
        <mxCell id="4kgw8Mr689Tr1ErhNRFe-18" value="hibernate、mybatis、jpa" style="rounded=0;whiteSpace=wrap;html=1;" vertex="1" parent="1">
          <mxGeometry x="421" y="331" width="110" height="40" as="geometry" />
        </mxCell>
        <mxCell id="4kgw8Mr689Tr1ErhNRFe-19" value="spring" style="rounded=0;whiteSpace=wrap;html=1;" vertex="1" parent="1">
          <mxGeometry x="421" y="281" width="110" height="40" as="geometry" />
        </mxCell>
        <mxCell id="4kgw8Mr689Tr1ErhNRFe-21" value="controller" style="text;html=1;strokeColor=none;fillColor=none;align=center;verticalAlign=middle;whiteSpace=wrap;rounded=0;" vertex="1" parent="1">
          <mxGeometry x="361" y="286" width="60" height="30" as="geometry" />
        </mxCell>
        <mxCell id="4kgw8Mr689Tr1ErhNRFe-22" value="model" style="text;html=1;strokeColor=none;fillColor=none;align=center;verticalAlign=middle;whiteSpace=wrap;rounded=0;" vertex="1" parent="1">
          <mxGeometry x="361" y="336" width="60" height="30" as="geometry" />
        </mxCell>
        <mxCell id="4kgw8Mr689Tr1ErhNRFe-24" value="JAVAWEB" style="text;html=1;strokeColor=none;fillColor=none;align=center;verticalAlign=middle;whiteSpace=wrap;rounded=0;" vertex="1" parent="1">
          <mxGeometry x="50" y="20" width="60" height="30" as="geometry" />
        </mxCell>
        <mxCell id="4kgw8Mr689Tr1ErhNRFe-25" value="vue、react、angular、jquery" style="rounded=0;whiteSpace=wrap;html=1;dashed=1;fillColor=#d5e8d4;strokeColor=#82b366;" vertex="1" parent="1">
          <mxGeometry x="590" y="239" width="50" height="207" as="geometry" />
        </mxCell>
        <mxCell id="4kgw8Mr689Tr1ErhNRFe-36" value="" style="rounded=0;whiteSpace=wrap;html=1;dashed=1;fillColor=#dae8fc;strokeColor=#6c8ebf;" vertex="1" parent="1">
          <mxGeometry x="360" y="257" width="180" height="180" as="geometry" />
        </mxCell>
        <mxCell id="4kgw8Mr689Tr1ErhNRFe-29" value="jsp、html" style="rounded=0;whiteSpace=wrap;html=1;" vertex="1" parent="1">
          <mxGeometry x="421" y="288" width="110" height="40" as="geometry" />
        </mxCell>
        <mxCell id="4kgw8Mr689Tr1ErhNRFe-30" value="spring" style="rounded=0;whiteSpace=wrap;html=1;" vertex="1" parent="1">
          <mxGeometry x="421" y="338" width="110" height="40" as="geometry" />
        </mxCell>
        <mxCell id="4kgw8Mr689Tr1ErhNRFe-31" value="hibernate、mybatis、jpa" style="rounded=0;whiteSpace=wrap;html=1;" vertex="1" parent="1">
          <mxGeometry x="421" y="388" width="110" height="40" as="geometry" />
        </mxCell>
        <mxCell id="4kgw8Mr689Tr1ErhNRFe-32" value="model" style="text;html=1;strokeColor=none;fillColor=none;align=center;verticalAlign=middle;whiteSpace=wrap;rounded=0;" vertex="1" parent="1">
          <mxGeometry x="361" y="393" width="60" height="30" as="geometry" />
        </mxCell>
        <mxCell id="4kgw8Mr689Tr1ErhNRFe-33" value="controller" style="text;html=1;strokeColor=none;fillColor=none;align=center;verticalAlign=middle;whiteSpace=wrap;rounded=0;" vertex="1" parent="1">
          <mxGeometry x="361" y="343" width="60" height="30" as="geometry" />
        </mxCell>
        <mxCell id="4kgw8Mr689Tr1ErhNRFe-34" value="view" style="text;html=1;strokeColor=none;fillColor=none;align=center;verticalAlign=middle;whiteSpace=wrap;rounded=0;" vertex="1" parent="1">
          <mxGeometry x="361" y="293" width="60" height="30" as="geometry" />
        </mxCell>
        <mxCell id="4kgw8Mr689Tr1ErhNRFe-35" value="spring&lt;br&gt;boot" style="text;html=1;strokeColor=none;fillColor=none;align=center;verticalAlign=middle;whiteSpace=wrap;rounded=0;" vertex="1" parent="1">
          <mxGeometry x="360" y="257" width="60" height="30" as="geometry" />
        </mxCell>
        <mxCell id="4kgw8Mr689Tr1ErhNRFe-37" value="" style="rounded=0;whiteSpace=wrap;html=1;dashed=1;fillColor=#f5f5f5;fontColor=#333333;strokeColor=#666666;" vertex="1" parent="1">
          <mxGeometry x="160" y="257" width="180" height="180" as="geometry" />
        </mxCell>
        <mxCell id="4kgw8Mr689Tr1ErhNRFe-38" value="TOMCAT" style="text;html=1;strokeColor=none;fillColor=none;align=center;verticalAlign=middle;whiteSpace=wrap;rounded=0;" vertex="1" parent="1">
          <mxGeometry x="160" y="257" width="60" height="30" as="geometry" />
        </mxCell>
        <mxCell id="4kgw8Mr689Tr1ErhNRFe-39" value="view" style="text;html=1;strokeColor=none;fillColor=none;align=center;verticalAlign=middle;whiteSpace=wrap;rounded=0;" vertex="1" parent="1">
          <mxGeometry x="160" y="292" width="60" height="30" as="geometry" />
        </mxCell>
        <mxCell id="4kgw8Mr689Tr1ErhNRFe-40" value="controller" style="text;html=1;strokeColor=none;fillColor=none;align=center;verticalAlign=middle;whiteSpace=wrap;rounded=0;" vertex="1" parent="1">
          <mxGeometry x="160" y="342" width="60" height="30" as="geometry" />
        </mxCell>
        <mxCell id="4kgw8Mr689Tr1ErhNRFe-41" value="model" style="text;html=1;strokeColor=none;fillColor=none;align=center;verticalAlign=middle;whiteSpace=wrap;rounded=0;" vertex="1" parent="1">
          <mxGeometry x="160" y="392" width="60" height="30" as="geometry" />
        </mxCell>
        <mxCell id="4kgw8Mr689Tr1ErhNRFe-42" value="hibernate、mybatis、jpa" style="rounded=0;whiteSpace=wrap;html=1;" vertex="1" parent="1">
          <mxGeometry x="220" y="387" width="110" height="40" as="geometry" />
        </mxCell>
        <mxCell id="4kgw8Mr689Tr1ErhNRFe-43" value="spring" style="rounded=0;whiteSpace=wrap;html=1;" vertex="1" parent="1">
          <mxGeometry x="220" y="337" width="110" height="40" as="geometry" />
        </mxCell>
        <mxCell id="4kgw8Mr689Tr1ErhNRFe-44" value="jsp、html" style="rounded=0;whiteSpace=wrap;html=1;" vertex="1" parent="1">
          <mxGeometry x="220" y="287" width="110" height="40" as="geometry" />
        </mxCell>
        <mxCell id="4kgw8Mr689Tr1ErhNRFe-49" style="edgeStyle=orthogonalEdgeStyle;rounded=0;orthogonalLoop=1;jettySize=auto;html=1;" edge="1" parent="1" source="4kgw8Mr689Tr1ErhNRFe-25" target="4kgw8Mr689Tr1ErhNRFe-44">
          <mxGeometry relative="1" as="geometry">
            <Array as="points">
              <mxPoint x="270" y="250" />
            </Array>
          </mxGeometry>
        </mxCell>
        <mxCell id="4kgw8Mr689Tr1ErhNRFe-48" style="edgeStyle=orthogonalEdgeStyle;rounded=0;orthogonalLoop=1;jettySize=auto;html=1;entryX=1;entryY=0.5;entryDx=0;entryDy=0;" edge="1" parent="1" source="4kgw8Mr689Tr1ErhNRFe-25" target="4kgw8Mr689Tr1ErhNRFe-29">
          <mxGeometry relative="1" as="geometry" />
        </mxCell>
        <mxCell id="4kgw8Mr689Tr1ErhNRFe-51" value="" style="html=1;shadow=0;dashed=0;align=center;verticalAlign=middle;shape=mxgraph.arrows2.arrow;dy=0.6;dx=40;direction=north;notch=0;" vertex="1" parent="1">
          <mxGeometry x="421" y="190" width="30" height="47" as="geometry" />
        </mxCell>
        <mxCell id="4kgw8Mr689Tr1ErhNRFe-50" value="" style="html=1;shadow=0;dashed=0;align=center;verticalAlign=middle;shape=mxgraph.arrows2.arrow;dy=0.6;dx=40;direction=north;notch=0;" vertex="1" parent="1">
          <mxGeometry x="220" y="190" width="30" height="47" as="geometry" />
        </mxCell>
        <mxCell id="4kgw8Mr689Tr1ErhNRFe-53" value="代码层" style="text;html=1;strokeColor=#6c8ebf;fillColor=#dae8fc;align=center;verticalAlign=middle;whiteSpace=wrap;rounded=0;dashed=1;" vertex="1" parent="1">
          <mxGeometry x="60" y="285" width="20" height="105" as="geometry" />
        </mxCell>
        <mxCell id="4kgw8Mr689Tr1ErhNRFe-54" value="业务层" style="text;html=1;strokeColor=#666666;fillColor=#f5f5f5;align=center;verticalAlign=middle;whiteSpace=wrap;rounded=0;dashed=1;fontColor=#333333;" vertex="1" parent="1">
          <mxGeometry x="60" y="70" width="20" height="105" as="geometry" />
        </mxCell>
        <mxCell id="4kgw8Mr689Tr1ErhNRFe-55" value="认证授权" style="rounded=1;whiteSpace=wrap;html=1;" vertex="1" parent="1">
          <mxGeometry x="160" y="120" width="60" height="20" as="geometry" />
        </mxCell>
        <mxCell id="4kgw8Mr689Tr1ErhNRFe-59" value="权限管理" style="rounded=1;whiteSpace=wrap;html=1;" vertex="1" parent="1">
          <mxGeometry x="230" y="120" width="60" height="20" as="geometry" />
        </mxCell>
        <mxCell id="4kgw8Mr689Tr1ErhNRFe-69" value="用户管理" style="rounded=1;whiteSpace=wrap;html=1;" vertex="1" parent="1">
          <mxGeometry x="160" y="145.5" width="60" height="19" as="geometry" />
        </mxCell>
        <mxCell id="4kgw8Mr689Tr1ErhNRFe-70" value="系统配置" style="rounded=1;whiteSpace=wrap;html=1;" vertex="1" parent="1">
          <mxGeometry x="230" y="145" width="60" height="20" as="geometry" />
        </mxCell>
        <mxCell id="4kgw8Mr689Tr1ErhNRFe-71" value="......" style="rounded=1;whiteSpace=wrap;html=1;" vertex="1" parent="1">
          <mxGeometry x="230" y="170.5" width="60" height="20" as="geometry" />
        </mxCell>
        <mxCell id="4kgw8Mr689Tr1ErhNRFe-72" value="日志审计" style="rounded=1;whiteSpace=wrap;html=1;" vertex="1" parent="1">
          <mxGeometry x="160" y="170" width="60" height="20" as="geometry" />
        </mxCell>
        <mxCell id="4kgw8Mr689Tr1ErhNRFe-76" value="自研" style="text;html=1;strokeColor=#b85450;fillColor=#f8cecc;align=center;verticalAlign=middle;whiteSpace=wrap;rounded=0;dashed=1;" vertex="1" parent="1">
          <mxGeometry x="120" y="85" width="20" height="105" as="geometry" />
        </mxCell>
        <mxCell id="4kgw8Mr689Tr1ErhNRFe-77" value="" style="rounded=0;whiteSpace=wrap;html=1;fillColor=#f8cecc;strokeColor=#b85450;dashed=1;" vertex="1" parent="1">
          <mxGeometry x="150" y="55" width="150" height="49" as="geometry" />
        </mxCell>
        <mxCell id="4kgw8Mr689Tr1ErhNRFe-78" value="业务功能" style="rounded=1;whiteSpace=wrap;html=1;" vertex="1" parent="1">
          <mxGeometry x="160" y="70" width="60" height="20" as="geometry" />
        </mxCell>
        <mxCell id="4kgw8Mr689Tr1ErhNRFe-79" value="......" style="rounded=1;whiteSpace=wrap;html=1;" vertex="1" parent="1">
          <mxGeometry x="230" y="70" width="60" height="20" as="geometry" />
        </mxCell>
        <mxCell id="4kgw8Mr689Tr1ErhNRFe-85" value="" style="rounded=0;whiteSpace=wrap;html=1;fillColor=#b0e3e6;dashed=1;strokeColor=#0e8088;" vertex="1" parent="1">
          <mxGeometry x="367" y="110" width="150" height="89" as="geometry" />
        </mxCell>
        <mxCell id="4kgw8Mr689Tr1ErhNRFe-86" value="认证授权" style="rounded=1;whiteSpace=wrap;html=1;" vertex="1" parent="1">
          <mxGeometry x="377" y="120" width="60" height="20" as="geometry" />
        </mxCell>
        <mxCell id="4kgw8Mr689Tr1ErhNRFe-87" value="权限管理" style="rounded=1;whiteSpace=wrap;html=1;" vertex="1" parent="1">
          <mxGeometry x="447" y="120" width="60" height="20" as="geometry" />
        </mxCell>
        <mxCell id="4kgw8Mr689Tr1ErhNRFe-88" value="用户管理" style="rounded=1;whiteSpace=wrap;html=1;" vertex="1" parent="1">
          <mxGeometry x="377" y="145.5" width="60" height="19" as="geometry" />
        </mxCell>
        <mxCell id="4kgw8Mr689Tr1ErhNRFe-89" value="......" style="rounded=1;whiteSpace=wrap;html=1;" vertex="1" parent="1">
          <mxGeometry x="447" y="170.5" width="60" height="20" as="geometry" />
        </mxCell>
        <mxCell id="4kgw8Mr689Tr1ErhNRFe-90" value="日志审计" style="rounded=1;whiteSpace=wrap;html=1;" vertex="1" parent="1">
          <mxGeometry x="377" y="170" width="60" height="20" as="geometry" />
        </mxCell>
        <mxCell id="4kgw8Mr689Tr1ErhNRFe-91" value="自研" style="text;html=1;strokeColor=#b85450;fillColor=#f8cecc;align=center;verticalAlign=middle;whiteSpace=wrap;rounded=0;dashed=1;" vertex="1" parent="1">
          <mxGeometry x="337" y="85" width="20" height="105" as="geometry" />
        </mxCell>
        <mxCell id="4kgw8Mr689Tr1ErhNRFe-92" value="" style="rounded=0;whiteSpace=wrap;html=1;fillColor=#b0e3e6;dashed=1;strokeColor=#0e8088;" vertex="1" parent="1">
          <mxGeometry x="367" y="55" width="150" height="49" as="geometry" />
        </mxCell>
        <mxCell id="4kgw8Mr689Tr1ErhNRFe-93" value="业务功能" style="rounded=1;whiteSpace=wrap;html=1;" vertex="1" parent="1">
          <mxGeometry x="377" y="70" width="60" height="20" as="geometry" />
        </mxCell>
        <mxCell id="4kgw8Mr689Tr1ErhNRFe-94" value="......" style="rounded=1;whiteSpace=wrap;html=1;" vertex="1" parent="1">
          <mxGeometry x="447" y="70" width="60" height="20" as="geometry" />
        </mxCell>
        <mxCell id="4kgw8Mr689Tr1ErhNRFe-96" value="若依" style="text;html=1;fillColor=#b0e3e6;align=center;verticalAlign=middle;whiteSpace=wrap;rounded=0;dashed=1;strokeColor=#0e8088;" vertex="1" parent="1">
          <mxGeometry x="337" y="85" width="20" height="105" as="geometry" />
        </mxCell>
        <mxCell id="4kgw8Mr689Tr1ErhNRFe-100" value="" style="rounded=0;whiteSpace=wrap;html=1;fillColor=#fff2cc;strokeColor=#d6b656;dashed=1;" vertex="1" parent="1">
          <mxGeometry x="573" y="56" width="150" height="49" as="geometry" />
        </mxCell>
        <mxCell id="4kgw8Mr689Tr1ErhNRFe-101" value="业务功能" style="rounded=1;whiteSpace=wrap;html=1;" vertex="1" parent="1">
          <mxGeometry x="583" y="71" width="60" height="20" as="geometry" />
        </mxCell>
        <mxCell id="4kgw8Mr689Tr1ErhNRFe-102" value="......" style="rounded=1;whiteSpace=wrap;html=1;" vertex="1" parent="1">
          <mxGeometry x="653" y="71" width="60" height="20" as="geometry" />
        </mxCell>
        <mxCell id="4kgw8Mr689Tr1ErhNRFe-103" value="其它" style="text;html=1;strokeColor=#d6b656;fillColor=#fff2cc;align=center;verticalAlign=middle;whiteSpace=wrap;rounded=0;dashed=1;" vertex="1" parent="1">
          <mxGeometry x="543" y="86" width="20" height="105" as="geometry" />
        </mxCell>
        <mxCell id="4kgw8Mr689Tr1ErhNRFe-104" value="" style="rounded=0;whiteSpace=wrap;html=1;fillColor=#fff2cc;strokeColor=#d6b656;dashed=1;" vertex="1" parent="1">
          <mxGeometry x="573" y="110.5" width="150" height="89" as="geometry" />
        </mxCell>
        <mxCell id="4kgw8Mr689Tr1ErhNRFe-105" value="......" style="rounded=1;whiteSpace=wrap;html=1;" vertex="1" parent="1">
          <mxGeometry x="653" y="140.5" width="60" height="29.5" as="geometry" />
        </mxCell>
        <mxCell id="4kgw8Mr689Tr1ErhNRFe-106" value="基础通用能力" style="rounded=1;whiteSpace=wrap;html=1;" vertex="1" parent="1">
          <mxGeometry x="583" y="140" width="60" height="30" as="geometry" />
        </mxCell>
        <mxCell id="4kgw8Mr689Tr1ErhNRFe-107" value="系统配置" style="rounded=1;whiteSpace=wrap;html=1;" vertex="1" parent="1">
          <mxGeometry x="447" y="145.25" width="60" height="20" as="geometry" />
        </mxCell>
      </root>
    </mxGraphModel>
  </diagram>
</mxfile>
